<?xml version="1.0" encoding="utf-8"?>
<!-- Generator: Adobe Illustrator 17.0.0, SVG Export Plug-In . SVG Version: 6.00 Build 0)  -->
<!DOCTYPE svg PUBLIC "-//W3C//DTD SVG 1.1//EN" "http://www.w3.org/Graphics/SVG/1.1/DTD/svg11.dtd">
<svg version="1.1" id="A_xA0_Image_1_" xmlns="http://www.w3.org/2000/svg" xmlns:xlink="http://www.w3.org/1999/xlink" x="0px"
	 y="0px" width="87.84px" height="87.6px" viewBox="0 0 87.84 87.6" enable-background="new 0 0 87.84 87.6" xml:space="preserve">
<g>
	<path d="M44.76,16.485c1.839,0.001,3.679,0.021,5.517-0.009c0.84-0.014,1.28,0.306,1.569,1.131
		c4.781,13.648,9.595,27.285,14.399,40.925c1.354,3.843,2.709,7.686,4.046,11.535c0.472,1.36,0.353,1.496-1.117,1.496
		c-2.959,0.001-5.918-0.021-8.876,0.016c-0.843,0.011-1.323-0.252-1.588-1.089c-0.783-2.475-1.668-4.919-2.433-7.399
		c-0.357-1.157-0.926-1.653-2.218-1.639c-6.276,0.067-12.554,0.057-18.831,0.009c-1.182-0.009-1.701,0.44-2.033,1.534
		c-0.777,2.56-1.632,5.1-2.562,7.608c-0.157,0.423-0.84,0.912-1.292,0.923c-3.117,0.079-6.236,0.031-9.355,0.044
		c-0.931,0.004-1.201-0.297-0.865-1.24c2.115-5.947,4.189-11.908,6.274-17.865c2.864-8.182,5.725-16.365,8.591-24.546
		c1.215-3.468,2.465-6.925,3.643-10.406c0.269-0.795,0.707-1.051,1.493-1.038C41.002,16.505,42.881,16.484,44.76,16.485z
		 M44.745,51.463c1.996,0,3.992-0.007,5.988,0.002c1.427,0.007,1.577-0.164,1.131-1.502c-1.324-3.974-2.666-7.941-3.993-11.914
		c-0.847-2.534-1.668-5.077-2.535-7.604c-0.098-0.286-0.423-0.495-0.642-0.739c-0.18,0.235-0.413,0.446-0.526,0.709
		c-0.156,0.362-0.203,0.77-0.329,1.147c-2.082,6.202-4.154,12.407-6.271,18.596c-0.351,1.026-0.002,1.312,0.95,1.307
		C40.593,51.454,42.669,51.463,44.745,51.463z"/>
</g>
</svg>
