<?xml version="1.0" encoding="utf-8"?>
<!-- Generator: Adobe Illustrator 17.0.0, SVG Export Plug-In . SVG Version: 6.00 Build 0)  -->
<!DOCTYPE svg PUBLIC "-//W3C//DTD SVG 1.1//EN" "http://www.w3.org/Graphics/SVG/1.1/DTD/svg11.dtd">
<svg version="1.1" id="E_xA0_Image_1_" xmlns="http://www.w3.org/2000/svg" xmlns:xlink="http://www.w3.org/1999/xlink" x="0px"
	 y="0px" width="87.84px" height="87.6px" viewBox="0 0 87.84 87.6" enable-background="new 0 0 87.84 87.6" xml:space="preserve">
<g>
	<path d="M26.936,44.038c0.002-8.759,0.022-17.518-0.024-26.277c-0.006-1.102,0.42-1.4,1.39-1.399
		c10.399,0.009,20.798,0.011,31.197-0.003c0.921-0.001,1.271,0.338,1.254,1.282c-0.047,2.599-0.051,5.2,0.005,7.798
		c0.022,1.022-0.376,1.298-1.342,1.293c-6.599-0.032-13.199-0.019-19.798-0.021c-1.725-0.001-1.766,0.043-1.765,1.726
		c0.002,2.88,0.039,5.76-0.022,8.639c-0.023,1.108,0.365,1.469,1.459,1.461c5.999-0.043,11.999-0.005,17.998-0.056
		c1.127-0.01,1.564,0.279,1.52,1.479c-0.089,2.396-0.087,4.801-0.003,7.197c0.04,1.145-0.277,1.547-1.461,1.537
		c-5.919-0.051-11.839-0.024-17.758-0.029c-1.663-0.001-1.734,0.07-1.732,1.777c0.004,3.04,0.001,6.079-0.001,9.119
		c-0.001,1.495,0.113,1.604,1.656,1.604c6.679-0.003,13.359-0.004,20.038-0.004c1.721,0,1.797,0.083,1.797,1.837
		c0,2.36-0.024,4.72,0.015,7.079c0.017,1.012-0.337,1.424-1.394,1.421c-10.599-0.025-21.198-0.029-31.797,0.005
		c-1.025,0.003-1.258-0.338-1.254-1.308C26.949,61.477,26.934,52.757,26.936,44.038z"/>
</g>
</svg>
