<?xml version="1.0" encoding="utf-8"?>
<!-- Generator: Adobe Illustrator 17.0.0, SVG Export Plug-In . SVG Version: 6.00 Build 0)  -->
<!DOCTYPE svg PUBLIC "-//W3C//DTD SVG 1.1//EN" "http://www.w3.org/Graphics/SVG/1.1/DTD/svg11.dtd">
<svg version="1.1" id="I_xA0_Image_1_" xmlns="http://www.w3.org/2000/svg" xmlns:xlink="http://www.w3.org/1999/xlink" x="0px"
	 y="0px" width="87.84px" height="87.6px" viewBox="0 0 87.84 87.6" enable-background="new 0 0 87.84 87.6" xml:space="preserve">
<g>
	<path d="M39.24,43.493c0-8.713,0.01-17.425-0.015-26.137c-0.003-0.923,0.261-1.269,1.227-1.25c2.757,0.055,5.516,0.066,8.272-0.003
		c1.051-0.026,1.398,0.288,1.382,1.346c-0.053,3.596-0.024,7.194-0.024,10.791c0,13.708,0,27.417,0.001,41.125
		c0,1.702-0.041,1.738-1.754,1.736c-2.598-0.003-5.196-0.009-7.793,0.009c-0.866,0.006-1.303-0.242-1.3-1.239
		c0.031-8.792,0.018-17.585,0.018-26.378C39.25,43.493,39.245,43.493,39.24,43.493z"/>
</g>
</svg>
