<?xml version="1.0" encoding="utf-8"?>
<!-- Generator: Adobe Illustrator 17.0.0, SVG Export Plug-In . SVG Version: 6.00 Build 0)  -->
<!DOCTYPE svg PUBLIC "-//W3C//DTD SVG 1.1//EN" "http://www.w3.org/Graphics/SVG/1.1/DTD/svg11.dtd">
<svg version="1.1" id="NN_xA0_Image_1_" xmlns="http://www.w3.org/2000/svg" xmlns:xlink="http://www.w3.org/1999/xlink" x="0px"
	 y="0px" width="87.84px" height="87.6px" viewBox="0 0 87.84 87.6" enable-background="new 0 0 87.84 87.6" xml:space="preserve">
<g>
	<path fill="#0DF3A1" d="M22.142,43.39c-0.039-0.049-0.075-0.1-0.108-0.153c-0.765-2-2.294-3.505-3.437-5.26
		c-0.267-0.41-0.667-0.235-0.773,0.224c-0.079,0.343-0.04,0.715-0.04,1.074c0,10.16-0.008,20.319,0.023,30.478
		c0.003,0.865-0.275,1.1-1.097,1.085c-2.359-0.043-4.72-0.016-7.079-0.016c-2.245,0-2.244,0-2.244-2.187
		c0-16.639,0-33.278-0.001-49.918c0-0.399,0.059-0.822-0.048-1.194c-0.295-1.019,0.14-1.287,1.078-1.271
		c1.919,0.032,3.846,0.096,5.756-0.036c0.814-0.057,1.256,0.162,1.68,0.766c3.572,5.09,7.18,10.155,10.729,15.261
		c3.708,5.335,7.58,10.556,11.14,15.994c0.163,0.249,0.341,0.461,0.668,0.395c0.391-0.079,0.473-0.383,0.474-0.727
		c0-0.12-0.011-0.24-0.012-0.36c-0.004-9.76,0.019-19.519-0.043-29.278C38.8,17,39.187,16.697,40.367,16.772
		c1.554,0.099,3.126,0.122,4.676-0.005c1.303-0.107,2.051,0.437,2.751,1.446c4.293,6.186,8.626,12.345,12.954,18.506
		c2.863,4.075,5.742,8.138,8.609,12.21c0.285,0.404,0.383,1.108,1.07,0.908c0.645-0.187,0.333-0.818,0.333-1.25
		c0.01-10.239,0.013-20.479-0.015-30.718c-0.002-0.852,0.274-1.104,1.104-1.091c2.759,0.041,5.52,0.043,8.279,0.001
		c0.799-0.012,1.028,0.253,1.027,1.031c-0.017,17.519-0.018,35.038-0.001,52.558c0.001,0.882-0.292,1.211-1.183,1.19
		c-1.919-0.046-3.841-0.051-5.759,0.005c-0.79,0.023-1.271-0.305-1.685-0.903c-3.306-4.785-6.605-9.576-9.934-14.345
		c-3.4-4.87-6.834-9.715-10.247-14.576c-0.619-0.881-1.174-1.808-1.826-2.663c-0.239-0.314-0.568-0.782-1.073-0.577
		c-0.411,0.168-0.205,0.633-0.244,0.973c-0.014,0.118,0.005,0.24,0.005,0.36c0.003,10.16-0.004,20.319,0.023,30.479
		c0.003,0.942-0.303,1.283-1.248,1.249c-1.598-0.057-3.2-0.031-4.799-0.006c-0.653,0.01-1.099-0.171-1.494-0.754
		c-1.566-2.31-3.197-4.576-4.801-6.86c-3.941-5.61-7.85-11.244-11.845-16.815C24.13,45.847,23.446,44.37,22.142,43.39z"/>
	<path fill="#88F9D0" d="M22.142,43.39c1.303,0.98,1.987,2.458,2.902,3.733c3.995,5.571,7.904,11.205,11.845,16.815
		c1.605,2.284,3.236,4.55,4.801,6.86c0.395,0.583,0.841,0.764,1.494,0.754c1.6-0.025,3.201-0.051,4.799,0.006
		c0.945,0.034,1.251-0.307,1.248-1.249c-0.027-10.159-0.02-20.319-0.023-30.479c0-0.12-0.019-0.241-0.005-0.36
		c0.039-0.339-0.167-0.805,0.244-0.973c0.505-0.206,0.833,0.262,1.073,0.577c0.652,0.855,1.207,1.782,1.826,2.663
		c3.413,4.861,6.847,9.706,10.247,14.576c3.329,4.769,6.628,9.56,9.934,14.345c0.413,0.598,0.895,0.926,1.685,0.903
		c1.918-0.056,3.84-0.051,5.759-0.005c0.891,0.021,1.184-0.309,1.183-1.19c-0.017-17.519-0.016-35.038,0.001-52.558
		c0.001-0.777-0.228-1.043-1.027-1.031c-2.759,0.043-5.52,0.041-8.279-0.001c-0.83-0.012-1.106,0.239-1.104,1.091
		c0.028,10.239,0.026,20.479,0.015,30.718c0,0.432,0.311,1.062-0.333,1.25c-0.687,0.2-0.786-0.504-1.07-0.908
		c-2.867-4.072-5.746-8.135-8.609-12.21c-4.329-6.161-8.661-12.32-12.954-18.506c-0.7-1.009-1.448-1.553-2.751-1.446
		c-1.55,0.127-3.122,0.104-4.676,0.005C39.187,16.697,38.8,17,38.808,18.269c0.061,9.759,0.039,19.519,0.043,29.278
		c0,0.12,0.012,0.24,0.012,0.36c-0.001,0.344-0.082,0.648-0.474,0.727c-0.328,0.066-0.505-0.146-0.668-0.395
		C34.161,42.8,30.288,37.58,26.58,32.245c-3.549-5.106-7.157-10.171-10.729-15.261c-0.424-0.604-0.866-0.822-1.68-0.766
		c-1.911,0.133-3.837,0.069-5.756,0.036c-0.938-0.016-1.373,0.252-1.078,1.271c0.107,0.372,0.048,0.794,0.048,1.194
		c0.002,16.639,0.002,33.278,0.001,49.918c0,2.187-0.001,2.187,2.244,2.187c2.36,0,4.72-0.027,7.079,0.016
		c0.823,0.015,1.1-0.221,1.097-1.085c-0.031-10.159-0.023-20.319-0.023-30.478c0-0.359-0.039-0.731,0.04-1.074
		c0.106-0.459,0.506-0.634,0.773-0.224c1.143,1.755,2.671,3.26,3.437,5.26c-1.148-0.744-1.537-2.085-2.402-3.052
		c-0.413-0.462-0.568-1.153-1.237-1.412c-0.315,0.265-0.148,0.604-0.149,0.893c-0.007,10.119-0.013,20.238,0.016,30.358
		c0.003,1.048-0.255,1.518-1.413,1.49c-2.878-0.069-5.759-0.014-8.639-0.026c-1.585-0.007-1.706-0.145-1.706-1.711
		c0-17.439,0.011-34.877-0.017-52.316c-0.003-1.719,0.313-2.161,2.149-2.092c1.877,0.071,3.76,0.041,5.639,0.002
		c0.737-0.015,1.182,0.174,1.645,0.842c4.407,6.352,8.88,12.659,13.325,18.984c2.749,3.912,5.483,7.835,8.228,11.75
		c0.169,0.241,0.256,0.702,0.662,0.541c0.432-0.171,0.082-0.557,0.082-0.844c0.002-2.6-0.009-5.199-0.01-7.799
		c-0.002-6.919-0.002-13.839-0.001-20.758c0-1.658,0.094-1.747,1.79-1.747c1.96,0,3.92,0.017,5.879-0.01
		c0.733-0.01,1.246,0.169,1.705,0.83c4.455,6.415,8.948,12.803,13.437,19.194c2.863,4.077,5.737,8.146,8.608,12.217
		c0.112,0.159,0.212,0.343,0.572,0.311c0.22-0.581-0.084-1.193-0.083-1.79c0.024-9.719,0.016-19.438,0.018-29.158
		c0-1.434,0.159-1.592,1.581-1.594c2.88-0.004,5.76,0.018,8.639-0.011c1.026-0.01,1.492,0.284,1.49,1.442
		c-0.032,17.639-0.032,35.277,0.003,52.916c0.002,1.086-0.348,1.376-1.365,1.348c-2.078-0.058-4.162-0.086-6.238,0.009
		c-1.024,0.047-1.608-0.353-2.147-1.136c-2.531-3.676-5.091-7.333-7.651-10.989c-4.09-5.843-8.19-11.68-12.281-17.523
		c-0.617-0.881-1.204-1.784-1.809-2.674c-0.111-0.163-0.238-0.35-0.475-0.262c-0.241,0.09-0.188,0.322-0.181,0.512
		c0.392,10.071,0.063,20.146,0.169,30.219c0.019,1.801-0.022,1.825-1.792,1.824c-1.6-0.001-3.205-0.076-4.798,0.026
		c-1.101,0.071-1.64-0.321-2.228-1.264c-1.348-2.161-2.928-4.176-4.401-6.26c-3.243-4.588-6.522-9.152-9.695-13.788
		c-1.484-2.169-2.999-4.314-4.522-6.454C22.256,44.023,22.068,43.74,22.142,43.39z"/>
</g>
</svg>
